<svg width="460" height="400" viewBox="0 0 299 237" fill="none" xmlns="http://www.w3.org/2000/svg">
<g clip-path="url(#clip0)">
<path opacity="0.12" d="M134.768 42.1262C124.404 50.8446 115.982 62.1671 103.991 68.4574C97.2785 71.9737 89.812 73.7099 82.5151 75.7228C57.8907 82.5163 32.2356 94.7258 21.4946 117.924C19.0812 123.145 17.5225 128.756 14.7257 133.776C12.4505 137.84 9.40863 141.425 6.96379 145.426C0.849711 155.422 -1.34057 167.333 0.817111 178.852C3.61391 193.402 13.3367 205.995 25.4101 214.562C34.0544 220.689 43.8652 224.972 54.2329 227.143C77.814 232.075 102.112 225.766 126.17 224.627C170.793 222.463 215.63 238.038 259.669 230.515C271.931 228.42 284.765 223.916 291.867 213.694C296.643 206.813 298.189 198.183 298.592 189.791C299.596 167.374 293.328 145.233 280.723 126.674C276.117 119.931 270.567 113.465 268.839 105.451C267.827 100.771 268.21 95.9021 267.67 91.1466C267.02 85.8536 265.226 80.7659 262.413 76.2371C259.6 71.7083 255.834 67.8472 251.379 64.9223C241.21 58.3426 228.005 57.0154 218.873 49.0644C206.065 37.9054 202.061 26.5514 183.338 25.199C165.784 23.9283 148.092 30.9232 134.768 42.1262Z" fill="#4B2B5F"/>
<path d="M194.092 76.2511C194.092 76.2511 199.522 87.8568 202.118 90.5868C204.713 93.3167 243.051 110.603 243.051 110.603C243.051 110.603 244.541 112.427 247.363 111.326C250.185 110.225 253.208 102.954 253.208 102.954C253.208 102.954 251.084 99.8838 248.494 99.7517C245.905 99.6196 247.363 97.6005 247.363 97.6005L242.794 99.7517C242.794 99.7517 240.028 101.173 232.776 95.814C225.523 90.4547 210.835 83.5542 210.835 83.5542L207.692 74.6157L194.092 76.2511Z" fill="url(#paint0_linear)"/>
<path d="M194.092 76.2511C194.092 76.2511 199.522 87.8568 202.118 90.5868C204.713 93.3167 243.051 110.603 243.051 110.603C243.051 110.603 244.541 112.427 247.363 111.326C250.185 110.225 253.208 102.954 253.208 102.954C253.208 102.954 251.084 99.8838 248.494 99.7517C245.905 99.6196 247.363 97.6005 247.363 97.6005L242.794 99.7517C242.794 99.7517 240.028 101.173 232.776 95.814C225.523 90.4547 210.835 83.5542 210.835 83.5542L207.692 74.6157L194.092 76.2511Z" fill="url(#paint1_linear)"/>
<path d="M206.196 48.7876L208.604 71.0994V75.5278H204.939L199.34 65.5765L206.196 48.7876Z" fill="#4B2B5F"/>
<path d="M206.196 48.7876L208.604 71.0994V75.5278H204.939L199.34 65.5765L206.196 48.7876Z" fill="url(#paint2_linear)"/>
<path d="M93.2434 219.331C87.6686 219.142 82.0876 218.959 76.5191 219.261C69.568 219.645 62.6923 220.784 55.8165 221.922L36.1698 225.18C40.3744 229.93 47.0302 231.471 53.2397 232.779C58.5002 233.893 63.8236 234.993 69.1846 235.371C75.4696 235.817 81.8425 235.245 88.1589 234.868C112.431 233.427 136.773 234.824 161.064 235.729C198.983 237.151 236.919 237.384 274.872 236.428C273.973 233.71 271.176 232.024 268.367 231.471C265.558 230.917 262.667 231.345 259.813 231.546C249.204 232.301 239.626 229.766 229.903 225.822C221.821 222.545 213.694 223.344 205.027 223.054L134.008 220.689L93.2434 219.331Z" fill="url(#paint3_linear)"/>
<path d="M183.244 203.045C191.241 203.045 197.724 196.486 197.724 188.395C197.724 180.304 191.241 173.745 183.244 173.745C175.246 173.745 168.763 180.304 168.763 188.395C168.763 196.486 175.246 203.045 183.244 203.045Z" fill="#4B2B5F"/>
<path d="M183.244 203.045C191.241 203.045 197.724 196.486 197.724 188.395C197.724 180.304 191.241 173.745 183.244 173.745C175.246 173.745 168.763 180.304 168.763 188.395C168.763 196.486 175.246 203.045 183.244 203.045Z" fill="url(#paint4_linear)"/>
<path d="M75.9976 231.037C66.3168 231.037 56.8533 228.164 48.804 222.781C40.7547 217.398 34.481 209.747 30.7763 200.795C27.0716 191.844 26.1023 181.993 27.9909 172.491C29.8796 162.988 34.5413 154.259 41.3867 147.407C48.2321 140.556 56.9537 135.89 66.4485 134C75.9433 132.11 85.7849 133.08 94.7289 136.788C103.673 140.496 111.317 146.775 116.696 154.831C122.074 162.887 124.945 172.359 124.945 182.048C124.925 195.034 119.761 207.483 110.586 216.666C101.411 225.849 88.9731 231.017 75.9976 231.037ZM75.9976 138.865C67.4626 138.865 59.1193 141.398 52.0227 146.144C44.9262 150.89 39.3953 157.636 36.1293 165.528C32.8634 173.42 32.0092 182.104 33.6748 190.482C35.3403 198.86 39.4508 206.556 45.4864 212.596C51.522 218.636 59.2117 222.749 67.5828 224.414C75.954 226.08 84.6307 225.224 92.5157 221.954C100.401 218.684 107.14 213.147 111.881 206.044C116.621 198.941 119.151 190.59 119.15 182.048C119.137 170.598 114.586 159.621 106.496 151.525C98.4059 143.43 87.4377 138.877 75.9976 138.865Z" fill="black"/>
<path d="M250.662 235.063C241.103 235.061 231.758 232.223 223.81 226.906C215.862 221.588 209.669 214.032 206.012 205.191C202.356 196.351 201.401 186.624 203.269 177.24C205.136 167.856 209.743 159.238 216.505 152.474C223.267 145.711 231.881 141.107 241.258 139.244C250.634 137.38 260.353 138.342 269.183 142.008C278.014 145.673 285.56 151.877 290.867 159.835C296.175 167.793 299.005 177.147 299 186.715C298.977 199.536 293.876 211.825 284.815 220.887C275.754 229.95 263.472 235.048 250.662 235.063ZM250.662 144.589C242.344 144.589 234.212 147.058 227.295 151.683C220.378 156.308 214.986 162.881 211.802 170.573C208.617 178.264 207.783 186.728 209.404 194.894C211.025 203.06 215.029 210.562 220.909 216.451C226.789 222.34 234.282 226.352 242.441 227.979C250.599 229.606 259.056 228.776 266.743 225.594C274.43 222.411 281.001 217.019 285.626 210.098C290.251 203.178 292.723 195.041 292.728 186.715C292.728 175.545 288.297 164.832 280.41 156.93C272.522 149.027 261.823 144.582 250.662 144.57V144.589Z" fill="black"/>
<path d="M252.127 196.623C251.841 196.853 251.493 196.995 251.128 197.031C229.614 189.319 225.359 134.481 225.359 134.481L230.645 133.355C230.645 133.493 230.645 133.638 230.683 133.776C234.265 179.161 252.322 195.956 252.322 195.956C252.345 196.074 252.339 196.197 252.305 196.313C252.272 196.429 252.21 196.535 252.127 196.623Z" fill="#4B2B5F"/>
<path d="M252.127 196.622C231.506 187.577 227.389 134.506 227.389 134.506L230.695 133.801C234.278 179.186 252.334 195.981 252.334 195.981C252.352 196.097 252.342 196.215 252.306 196.326C252.27 196.438 252.209 196.539 252.127 196.622Z" fill="url(#paint5_linear)"/>
<path d="M128.125 106.306L148.293 145.306L160.769 144.337L161.611 105.042C161.611 105.042 131.142 80.2455 128.125 106.306Z" fill="#25233A"/>
<path d="M160.543 148.193L159.826 144.419L148.293 145.312L150.091 150.464L149.286 152.98C147.747 157.807 147.434 162.942 148.375 167.92L165.194 201.887L171.227 201.491L160.543 148.193Z" fill="url(#paint6_linear)"/>
<path d="M139.702 124.177H145.038L133.788 187.678C133.682 188.286 133.365 188.838 132.892 189.235C132.42 189.633 131.822 189.849 131.205 189.848H131.161C130.777 189.847 130.398 189.763 130.05 189.6C129.703 189.437 129.395 189.201 129.148 188.906C128.901 188.612 128.722 188.268 128.622 187.897C128.523 187.526 128.505 187.138 128.571 186.759L139.702 124.177Z" fill="#4B2B5F"/>
<path d="M139.702 135.959L223.939 115.025V121.346L139.702 142.689V135.959Z" fill="#4B2B5F"/>
<path d="M134.033 177.292L223.939 122.648V130.436L134.033 184.413V177.292Z" fill="#4B2B5F"/>
<path d="M134.033 177.292L223.939 122.648V130.436L134.033 184.413V177.292Z" fill="url(#paint7_linear)"/>
<path d="M233.743 114.635V130.209C233.744 131.066 233.444 131.895 232.896 132.552C232.348 133.21 231.587 133.654 230.746 133.807L228.232 134.267C227.705 134.364 227.163 134.343 226.645 134.207C226.126 134.071 225.645 133.822 225.233 133.479C224.822 133.136 224.491 132.706 224.264 132.22C224.037 131.735 223.92 131.205 223.92 130.669V115.088C223.921 114.232 224.221 113.403 224.769 112.746C225.316 112.088 226.077 111.644 226.918 111.489L227.377 111.408L229.419 111.037C229.947 110.938 230.49 110.956 231.01 111.091C231.53 111.227 232.013 111.475 232.426 111.818C232.839 112.162 233.171 112.593 233.399 113.079C233.627 113.566 233.744 114.097 233.743 114.635Z" fill="#4B2B5F"/>
<path d="M233.743 113.628V130.908C233.744 131.568 233.512 132.207 233.09 132.714C232.667 133.221 232.08 133.564 231.431 133.682L227.257 134.449C226.851 134.523 226.434 134.506 226.035 134.401C225.636 134.296 225.265 134.104 224.948 133.839C224.631 133.575 224.375 133.244 224.2 132.87C224.025 132.496 223.933 132.088 223.933 131.675V114.377C223.932 113.716 224.164 113.077 224.586 112.57C225.009 112.063 225.596 111.721 226.245 111.603L227.389 111.389L230.419 110.835C230.827 110.76 231.246 110.776 231.647 110.882C232.048 110.988 232.42 111.182 232.738 111.448C233.056 111.715 233.31 112.049 233.484 112.426C233.658 112.803 233.747 113.213 233.743 113.628Z" fill="url(#paint8_linear)"/>
<path d="M237.2 132.549L233.743 133.178V110.238L227.389 111.401V111.338L237.2 109.533" fill="url(#paint9_linear)"/>
<path d="M233.743 110.238V133.178L227.389 134.342V111.401L233.743 110.238Z" fill="url(#paint10_linear)"/>
<path d="M139.702 135.965L65.8914 181.884C65.8914 181.884 62.6798 190.093 65.8914 189.842C69.103 189.59 133.769 187.671 133.769 187.671L134.008 180.595L70.0709 186.476C70.0709 186.476 68.0031 185.218 70.9319 182.866C73.8607 180.513 139.702 142.683 139.702 142.683V135.965Z" fill="#4B2B5F"/>
<path d="M145.038 124.177L143.102 135.135L141.845 142.161L133.781 187.69C133.676 188.299 133.359 188.851 132.886 189.248C132.413 189.645 131.815 189.862 131.198 189.86H131.154C130.564 189.86 129.991 189.66 129.529 189.294C129.066 188.927 128.739 188.416 128.603 187.841C128.514 187.492 128.501 187.127 128.565 186.772L129.589 181.023L136.025 144.816L137.339 137.443L139.695 124.19L145.038 124.177Z" fill="url(#paint11_linear)"/>
<path d="M223.933 115.031V121.346L141.851 142.142L143.102 135.122L223.933 115.031Z" fill="url(#paint12_linear)"/>
<path d="M70.0897 186.483L129.596 181.01L128.571 186.759C128.508 187.13 128.898 184.08 128.986 184.419C113.575 184.885 69.147 186.935 66.2245 188.395C63.302 189.854 68.11 182.048 68.11 182.048L136.792 140.576L136.038 144.803C122.148 152.798 73.4585 180.846 70.9571 182.872C68.022 185.237 70.0897 186.483 70.0897 186.483Z" fill="url(#paint13_linear)"/>
<path d="M238.558 109.005L235.296 113.043C235.296 113.043 235.365 116.339 237.621 116.151L250.631 98.9717C250.631 98.9717 258.047 88.6368 251.178 83.875C249.631 82.8114 247.854 82.1321 245.993 81.8935C236.798 80.6669 228.634 87.9197 228.257 97.1916L227.628 112.068L231.827 111.823L232.662 95.2038C232.889 88.2845 244.667 80.8745 249.519 88.0895C252.278 92.153 243.686 103.054 238.558 109.005Z" fill="#4B2B5F"/>
<path d="M198.881 36.6474C201.979 33.8607 204.839 30.4514 205.53 26.3375C205.819 24.5762 205.725 22.7395 205.951 20.9719C206.373 17.7198 206.957 14.1469 209.477 12.0459C210.727 11.1055 212.173 10.4603 213.707 10.1589C215.067 9.7984 216.474 9.64571 217.88 9.70595C222.368 9.98901 226.346 13.6248 227.308 18.0154C227.588 19.5779 227.701 21.1656 227.647 22.7521V27.2622C227.583 28.2591 227.714 29.2588 228.03 30.2061C228.37 31.0364 229.011 31.8604 228.797 32.7222C228.527 33.3735 228.05 33.9175 227.44 34.2696C226.682 34.8599 226.008 35.5497 225.435 36.3203C224.536 37.5343 223.876 38.9559 222.695 39.8931C220.759 41.4343 218 41.2456 215.555 40.8807C214.503 40.6624 213.423 40.6156 212.356 40.7423C210.118 41.1512 208.465 43.1075 206.303 43.812C206.014 43.921 205.707 43.9723 205.398 43.963C204.544 43.9064 203.915 43.183 203.381 42.5162C201.96 40.7235 200.301 38.4212 198.881 36.6474Z" fill="url(#paint14_linear)"/>
<path d="M205.493 55.7259C204.409 59.5252 202.276 62.9416 199.34 65.5828L162.969 98.3679C160.419 100.669 157.43 102.43 154.182 103.544C150.934 104.657 147.494 105.101 144.07 104.847C143.856 104.847 143.636 104.847 143.441 104.79C133.536 103.796 121.859 99.5504 124.926 84.6047C130.061 59.5755 180.862 38.6162 180.862 38.6162C197.36 31.6591 203.488 37.5594 205.568 44.8688C206.549 48.4248 206.523 52.1838 205.493 55.7259Z" fill="#4B2B5F"/>
<path d="M202.344 51.2031L201.797 57.1349C200.741 60.865 202.344 62.8716 199.365 65.5576L162.994 98.3427C160.444 100.644 157.455 102.405 154.207 103.518C150.959 104.632 147.519 105.075 144.095 104.822L136.515 101.463C136.515 101.463 140.833 87.2214 165.344 68.4574C189.856 49.6934 202.344 51.2031 202.344 51.2031Z" fill="url(#paint15_linear)"/>
<path d="M164.917 201.535C164.758 201.527 164.599 201.561 164.458 201.636C164.344 201.724 164.259 201.845 164.213 201.982C163.685 203.24 164.163 204.724 164.678 206.008C164.739 206.2 164.844 206.374 164.986 206.517C165.137 206.63 165.315 206.701 165.501 206.725C166.821 206.926 168.078 206.096 169.417 205.976C170.1 206.01 170.785 205.993 171.466 205.926C172.033 205.753 172.54 205.426 172.933 204.982C173.326 204.538 173.588 203.994 173.691 203.41C173.888 202.248 173.864 201.059 173.622 199.906C173.618 199.727 173.546 199.556 173.421 199.428C173.315 199.362 173.193 199.33 173.069 199.334C172.461 199.298 171.856 199.44 171.328 199.742C170.875 200 170.492 200.372 170.071 200.642C168.556 201.542 166.601 201.504 164.917 201.535Z" fill="#4B2B5F"/>
<path d="M164.917 201.535C164.758 201.527 164.599 201.561 164.458 201.636C164.344 201.724 164.259 201.845 164.213 201.982C163.685 203.24 164.163 204.724 164.678 206.008C164.739 206.2 164.844 206.374 164.986 206.517C165.137 206.63 165.315 206.701 165.501 206.725C166.821 206.926 168.078 206.096 169.417 205.976C170.1 206.01 170.785 205.993 171.466 205.926C172.033 205.753 172.54 205.426 172.933 204.982C173.326 204.538 173.588 203.994 173.691 203.41C173.888 202.248 173.864 201.059 173.622 199.906C173.618 199.727 173.546 199.556 173.421 199.428C173.315 199.362 173.193 199.33 173.069 199.334C172.461 199.298 171.856 199.44 171.328 199.742C170.875 200 170.492 200.372 170.071 200.642C168.556 201.542 166.601 201.504 164.917 201.535Z" fill="url(#paint16_linear)"/>
<path d="M166.802 206.058C166.316 206.212 165.871 206.474 165.501 206.825C164.697 207.668 164.76 208.983 164.93 210.134C165.124 211.487 165.388 212.828 165.721 214.154C165.897 214.846 166.18 215.638 166.859 215.865C167.208 215.949 167.572 215.949 167.921 215.865C173.922 214.819 179.838 213.33 185.62 211.411C185.85 211.363 186.058 211.239 186.21 211.059C186.333 210.829 186.36 210.56 186.286 210.31C185.532 206.398 181.773 206.656 178.712 206.171C174.772 205.542 170.649 204.611 166.802 206.058Z" fill="#25233A"/>
<path d="M136.295 110.653C136.295 110.653 124.643 108.319 125.737 114.798C126.83 121.277 127.685 122.611 130.978 123.605C144.868 127.637 159.531 118.899 159.531 118.899C159.531 118.899 160.719 110.244 136.295 110.653Z" fill="#4B2B5F"/>
<path d="M136.295 110.653C136.295 110.653 124.643 108.319 125.737 114.798C126.83 121.277 127.685 122.611 130.978 123.605C144.868 127.637 159.531 118.899 159.531 118.899C159.531 118.899 160.719 110.244 136.295 110.653Z" fill="url(#paint17_linear)"/>
<path d="M215.259 24.0227C214.889 25.6141 214.75 27.3314 213.814 28.6649L212.664 25.6833C212.602 25.4337 212.458 25.2121 212.255 25.0543C212.126 24.9965 211.985 24.9703 211.844 24.9779C211.703 24.9856 211.566 25.0269 211.444 25.0983C211.024 25.3241 210.672 25.6585 210.424 26.0667C210.177 26.4749 210.043 26.942 210.037 27.4195C210.037 28.3789 210.324 29.3162 210.86 30.1117C211.036 30.3469 211.161 30.6171 211.224 30.9043C211.229 31.162 211.154 31.4148 211.01 31.6286C210.866 31.8423 210.66 32.0067 210.42 32.0995C209.933 32.2738 209.415 32.3424 208.899 32.3007L206.152 32.263C203.639 32.2253 200.791 32.0491 199.138 30.1495C199.516 29.5959 200.395 29.5204 200.76 29.0046C200.88 28.803 200.944 28.5726 200.944 28.3379C200.944 28.1031 200.88 27.8727 200.76 27.6711C200.51 27.2732 200.188 26.9254 199.811 26.6458L198.026 25.1801C197.561 24.7901 197.058 24.2743 197.184 23.683C197.423 22.5571 199.597 22.6137 199.578 21.4688C199.578 20.909 198.988 20.563 198.504 20.28C198.02 19.9969 197.504 19.4937 197.699 18.9716C197.926 18.3425 198.831 18.4369 199.421 18.1287C199.421 17.3864 198.277 17.1159 198.164 16.3925C198.149 16.1911 198.195 15.9897 198.296 15.8147C198.397 15.6397 198.548 15.4991 198.73 15.4113C199.098 15.248 199.496 15.1623 199.899 15.1596L202.652 14.9458C206.24 14.5657 209.854 14.4836 213.456 14.7005C214.168 14.7258 214.87 14.8859 215.523 15.1722C216.254 15.5741 216.865 16.1622 217.296 16.8769C217.855 17.7701 217.623 18.028 217.189 18.9464C216.365 20.564 215.718 22.266 215.259 24.0227Z" fill="#25233A"/>
<path d="M237.2 113.477L235.315 113.043C235.315 113.043 235.384 116.339 237.64 116.151L250.65 98.9717C250.65 98.9717 258.066 88.6368 251.197 83.875C249.65 82.8114 247.873 82.1321 246.012 81.8935C236.817 80.6669 228.653 87.9197 228.275 97.1916L227.647 112.068L229.419 111.018L230.551 94.8767C230.777 87.9574 243.642 79.151 251.134 86.6993C256.426 91.9769 243.711 109.388 237.2 113.477Z" fill="url(#paint18_linear)"/>
<path opacity="0.42" d="M178.543 205.24C165.445 205.24 85.3809 196.031 69.2789 194.163C67.6944 193.993 66.2374 193.215 65.2133 191.993C64.1892 190.771 63.6776 189.2 63.7858 187.608C63.9807 185.457 65.4074 182.778 71.1267 182.243C72.1322 182.149 171.504 172.914 181.182 171.87C186.298 171.323 191.006 172.707 194.431 175.764C196.028 177.234 197.296 179.026 198.151 181.022C199.005 183.018 199.428 185.173 199.39 187.344C199.446 199.088 192.778 204.957 178.995 205.234L178.543 205.24ZM71.2209 183.495C67.318 183.859 65.2314 185.281 65.0114 187.722C64.9318 188.988 65.3456 190.236 66.166 191.204C66.9863 192.172 68.1494 192.784 69.4109 192.911C85.7077 194.798 167.569 204.234 178.983 203.976C192.112 203.699 198.202 198.415 198.145 187.351C198.181 185.354 197.792 183.372 197.004 181.537C196.216 179.702 195.048 178.056 193.576 176.707C190.434 173.883 186.066 172.606 181.302 173.122C171.617 174.166 72.2454 183.4 71.2335 183.495H71.2209Z" fill="black"/>
<path d="M229.413 10.7564C229.413 12.4485 229.155 14.2727 227.848 15.5119C226.66 16.6379 224.856 17.0593 223.141 17.3235C213.995 18.7132 204.646 17.0602 196.53 12.6184C195.148 11.8446 193.652 10.5426 194.217 9.18384C194.392 8.81459 194.664 8.49948 195.003 8.27175C195.409 8.00052 195.841 7.76882 196.291 7.57982C200.062 5.88143 203.871 4.17676 207.717 2.57902C209.836 1.63032 212.045 0.896961 214.31 0.389994C217.956 -0.327102 223.411 -0.176135 226.528 1.94999C228.596 3.35902 229.181 6.43498 229.344 8.9574C229.394 9.6053 229.407 10.2217 229.413 10.7564Z" fill="#4B2B5F"/>
<path d="M229.344 8.9574C229.252 10.2046 228.722 11.3791 227.848 12.2724C226.66 13.4046 224.856 13.8261 223.141 14.0903C213.994 15.4776 204.646 13.8224 196.53 9.37885C195.978 9.07336 195.465 8.70158 195.003 8.27175C195.409 8.00052 195.841 7.76882 196.291 7.57982C200.062 5.88143 203.871 4.17676 207.717 2.57902C209.836 1.63032 212.045 0.896961 214.31 0.389993C217.956 -0.327102 223.411 -0.176135 226.528 1.94999C228.596 3.35902 229.18 6.43498 229.344 8.9574Z" fill="url(#paint19_linear)"/>
<path d="M199.396 40.8178C197.848 40.6772 196.304 41.1265 195.072 42.0759C192.143 44.1643 190.616 47.7057 189.698 51.1843C188.809 54.9651 188.197 58.8062 187.87 62.6767C187.436 66.6836 187.002 70.7786 187.87 74.7226C188.14 75.9807 188.63 77.3457 189.755 77.9998C191.087 78.7861 192.772 78.2955 194.236 77.7923L203.532 74.5716C204.236 74.4222 204.856 74.005 205.26 73.4079C205.466 72.8501 205.482 72.2394 205.304 71.6718C204.267 66.6395 204.946 60.1165 205.354 55.0151C205.668 50.7314 206.567 41.7991 199.396 40.8178Z" fill="#4B2B5F"/>
<path d="M189.73 78.0187C189.73 78.0187 195.474 89.6243 198.227 92.3606C200.98 95.0969 241.593 112.402 241.593 112.402C241.593 112.402 243.171 114.226 246.162 113.119C249.154 112.012 252.347 104.753 252.347 104.753C252.347 104.753 250.097 101.683 247.357 101.544C244.616 101.406 246.162 99.3932 246.162 99.3932L241.317 101.544C241.317 101.544 238.388 102.966 230.708 97.613C223.028 92.26 207.454 85.2966 207.454 85.2966L203.5 74.6031L189.73 78.0187Z" fill="url(#paint20_linear)"/>
<path d="M195.694 35.6598L201.583 33.9299C201.583 33.9299 205.662 41.4091 205.398 43.9252L195.694 35.6598Z" fill="#4B2B5F"/>
<path d="M195.694 35.6598L201.583 33.9299C201.583 33.9299 205.662 41.4091 205.398 43.9252L195.694 35.6598Z" fill="url(#paint21_linear)"/>
<path d="M205.235 73.4268L204.606 77.6602L191.307 81.1702L188.485 76.6915C188.485 76.6915 198.139 75.0434 205.235 73.4268Z" fill="#4B2B5F"/>
<path d="M205.235 73.4268L204.606 77.6602L191.307 81.1702L188.485 76.6915C188.485 76.6915 198.139 75.0434 205.235 73.4268Z" fill="url(#paint22_linear)"/>
<path d="M124.153 100.708C124.153 100.708 124.222 115.295 139.714 117.811C155.207 120.327 186.273 113.905 186.273 113.905L193.495 100.035L158.255 90.8572C158.255 90.8572 126.855 87.0831 124.153 100.708Z" fill="#25233A"/>
<path d="M193.495 100.035L186.273 113.905C186.273 113.905 193.815 112.156 194.607 113.66C195.399 115.163 188.366 118.264 187.555 138.884C187.467 141.161 186.078 150.25 185.67 152.496L184.413 156.56C184.413 156.56 189.818 157.132 190.069 157.05C190.321 156.968 212.814 109.294 204.657 103.878C202.312 102.299 193.495 100.035 193.495 100.035Z" fill="url(#paint23_linear)"/>
<path d="M180.78 156.723C180.78 156.304 180.874 155.891 181.054 155.513C181.235 155.135 181.498 154.803 181.824 154.54C182.1 154.392 182.403 154.302 182.715 154.273C183.027 154.245 183.342 154.281 183.64 154.377C184.234 154.567 184.814 154.8 185.375 155.075C186.627 155.598 187.978 155.842 189.334 155.792C189.925 155.792 190.591 155.742 190.981 156.207C191.106 156.438 191.175 156.695 191.183 156.957C191.19 157.219 191.136 157.479 191.025 157.717C190.703 158.753 190.293 159.759 189.799 160.724C189.739 160.873 189.641 161.005 189.516 161.107C189.382 161.185 189.231 161.232 189.076 161.246C186.807 161.587 184.496 161.534 182.245 161.089C179.662 160.573 180.604 158.667 180.78 156.723Z" fill="#4B2B5F"/>
<path d="M171.328 199.755C170.875 200.013 170.492 200.384 170.071 200.655L171.328 199.755Z" fill="url(#paint24_linear)"/>
<path d="M180.78 156.723C180.78 156.304 180.874 155.891 181.054 155.513C181.235 155.135 181.498 154.803 181.824 154.54C182.1 154.392 182.403 154.302 182.715 154.273C183.027 154.245 183.342 154.281 183.64 154.377C184.234 154.567 184.814 154.8 185.375 155.075C186.627 155.598 187.978 155.842 189.334 155.792C189.925 155.792 190.591 155.742 190.981 156.207C191.106 156.438 191.175 156.695 191.183 156.957C191.19 157.219 191.136 157.479 191.025 157.717C190.703 158.753 190.293 159.759 189.799 160.724C189.739 160.873 189.641 161.005 189.516 161.107C189.382 161.185 189.231 161.232 189.076 161.246C186.807 161.587 184.496 161.534 182.245 161.089C179.662 160.573 180.604 158.667 180.78 156.723Z" fill="url(#paint25_linear)"/>
<path d="M180.962 160.353C182.151 160.138 183.357 160.039 184.564 160.057C185.548 160.071 186.516 160.305 187.398 160.743C189.472 161.843 190.541 164.297 192.508 165.529C193.437 166.006 194.394 166.426 195.374 166.788C195.865 166.973 196.313 167.255 196.693 167.617C197.073 167.979 197.377 168.413 197.586 168.895C197.747 169.51 197.789 170.151 197.712 170.782C197.74 171.264 197.583 171.739 197.272 172.109C196.904 172.362 196.459 172.475 196.015 172.43C194.532 172.43 181.113 170.247 176.092 169.335C175.828 169.291 173.119 169.895 174.15 166.586C174.515 165.374 174.999 164.2 175.595 163.083C176.519 161.151 179.096 160.629 180.962 160.353Z" fill="#25233A"/>
<path d="M177.996 213.694L175.438 212.902L188.498 171.096L191.05 171.883L177.996 213.694Z" fill="#4B2B5F"/>
<path d="M177.996 213.694L175.438 212.902L188.498 171.096L191.05 171.883L177.996 213.694Z" fill="url(#paint26_linear)"/>
<path d="M182.282 170.505L181.321 173.732L197.039 175.858L197.479 173.053L182.282 170.505Z" fill="#4B2B5F"/>
<path d="M168.682 214.959L169.078 218.299L184.35 213.996L183.64 211.241L168.682 214.959Z" fill="#4B2B5F"/>
<path d="M182.282 170.505L181.321 173.732L197.039 175.858L197.479 173.053L182.282 170.505Z" fill="url(#paint27_linear)"/>
<path d="M168.682 214.959L169.078 218.299L184.35 213.996L183.64 211.241L168.682 214.959Z" fill="url(#paint28_linear)"/>
<path d="M184.325 190.993C185.578 190.993 186.594 189.976 186.594 188.722C186.594 187.468 185.578 186.451 184.325 186.451C183.072 186.451 182.056 187.468 182.056 188.722C182.056 189.976 183.072 190.993 184.325 190.993Z" fill="#4B2B5F"/>
<path d="M184.658 190.993C185.911 190.993 186.927 189.976 186.927 188.722C186.927 187.468 185.911 186.451 184.658 186.451C183.405 186.451 182.389 187.468 182.389 188.722C182.389 189.976 183.405 190.993 184.658 190.993Z" fill="url(#paint29_linear)"/>
<path d="M208.604 72.282L205.141 74.125L204.644 77.6539L208.604 75.5278V72.282Z" fill="#4B2B5F"/>
<path d="M208.604 72.282L205.141 74.125L204.644 77.6539L208.604 75.5278V72.282Z" fill="url(#paint30_linear)"/>
</g>
<defs>
<linearGradient id="paint0_linear" x1="194.092" y1="93.1469" x2="253.208" y2="93.1469" gradientUnits="userSpaceOnUse">
<stop stop-color="#ECC4D7"/>
<stop offset="0.42" stop-color="#EFD4D1"/>
<stop offset="1" stop-color="#F2EAC9"/>
</linearGradient>
<linearGradient id="paint1_linear" x1="233.259" y1="86.0389" x2="203.989" y2="104.202" gradientUnits="userSpaceOnUse">
<stop stop-opacity="0"/>
<stop offset="0.88" stop-opacity="0.8"/>
<stop offset="0.97"/>
</linearGradient>
<linearGradient id="paint2_linear" x1="3293.98" y1="2706.22" x2="3185.53" y2="2703.19" gradientUnits="userSpaceOnUse">
<stop stop-opacity="0"/>
<stop offset="0.88" stop-opacity="0.8"/>
<stop offset="0.97"/>
</linearGradient>
<linearGradient id="paint3_linear" x1="59102.9" y1="8881.99" x2="59057.8" y2="10498.3" gradientUnits="userSpaceOnUse">
<stop stop-opacity="0"/>
<stop offset="0.88" stop-opacity="0.8"/>
<stop offset="0.97"/>
</linearGradient>
<linearGradient id="paint4_linear" x1="8967.99" y1="7297.52" x2="8267.67" y2="10478.5" gradientUnits="userSpaceOnUse">
<stop stop-opacity="0"/>
<stop offset="0.88" stop-opacity="0.8"/>
<stop offset="0.97"/>
</linearGradient>
<linearGradient id="paint5_linear" x1="218.817" y1="168.002" x2="254.661" y2="163.562" gradientUnits="userSpaceOnUse">
<stop stop-color="white" stop-opacity="0"/>
<stop offset="0.84" stop-color="white" stop-opacity="0.84"/>
<stop offset="0.97" stop-color="white"/>
</linearGradient>
<linearGradient id="paint6_linear" x1="1833.89" y1="19742" x2="3063.18" y2="19993.6" gradientUnits="userSpaceOnUse">
<stop stop-color="#ECC4D7"/>
<stop offset="0.42" stop-color="#EFD4D1"/>
<stop offset="1" stop-color="#F2EAC9"/>
</linearGradient>
<linearGradient id="paint7_linear" x1="25188.2" y1="14586.1" x2="25729" y2="15862" gradientUnits="userSpaceOnUse">
<stop stop-opacity="0"/>
<stop offset="0.88" stop-opacity="0.8"/>
<stop offset="0.97"/>
</linearGradient>
<linearGradient id="paint8_linear" x1="3876.02" y1="5965.33" x2="3724.58" y2="5967.57" gradientUnits="userSpaceOnUse">
<stop stop-opacity="0"/>
<stop offset="0.88" stop-opacity="0.8"/>
<stop offset="0.97"/>
</linearGradient>
<linearGradient id="paint9_linear" x1="3970.8" y1="4623.42" x2="3812.04" y2="4639.7" gradientUnits="userSpaceOnUse">
<stop stop-color="white" stop-opacity="0"/>
<stop offset="0.84" stop-color="white" stop-opacity="0.84"/>
<stop offset="0.97" stop-color="white"/>
</linearGradient>
<linearGradient id="paint10_linear" x1="2605.41" y1="4752.52" x2="2439.98" y2="4763.3" gradientUnits="userSpaceOnUse">
<stop stop-color="white" stop-opacity="0"/>
<stop offset="0.84" stop-color="white" stop-opacity="0.84"/>
<stop offset="0.97" stop-color="white"/>
</linearGradient>
<linearGradient id="paint11_linear" x1="3669.41" y1="19845" x2="3820.05" y2="19852.2" gradientUnits="userSpaceOnUse">
<stop stop-opacity="0"/>
<stop offset="0.88" stop-opacity="0.8"/>
<stop offset="0.97"/>
</linearGradient>
<linearGradient id="paint12_linear" x1="23890.5" y1="5475.2" x2="23920.5" y2="5839.38" gradientUnits="userSpaceOnUse">
<stop stop-opacity="0"/>
<stop offset="0.88" stop-opacity="0.8"/>
<stop offset="0.97"/>
</linearGradient>
<linearGradient id="paint13_linear" x1="9166.33" y1="14944" x2="16121.6" y2="16469.5" gradientUnits="userSpaceOnUse">
<stop stop-opacity="0"/>
<stop offset="0.88" stop-opacity="0.8"/>
<stop offset="0.97"/>
</linearGradient>
<linearGradient id="paint14_linear" x1="9766.6" y1="3257.89" x2="11194.7" y2="3257.89" gradientUnits="userSpaceOnUse">
<stop stop-color="#ECC4D7"/>
<stop offset="0.42" stop-color="#EFD4D1"/>
<stop offset="1" stop-color="#F2EAC9"/>
</linearGradient>
<linearGradient id="paint15_linear" x1="12776.3" y1="11885" x2="23677.1" y2="5086.13" gradientUnits="userSpaceOnUse">
<stop stop-opacity="0"/>
<stop offset="0.88" stop-opacity="0.8"/>
<stop offset="0.97"/>
</linearGradient>
<linearGradient id="paint16_linear" x1="3047.19" y1="2992.89" x2="2621.52" y2="2961.68" gradientUnits="userSpaceOnUse">
<stop stop-color="white" stop-opacity="0"/>
<stop offset="0.84" stop-color="white" stop-opacity="0.84"/>
<stop offset="0.97" stop-color="white"/>
</linearGradient>
<linearGradient id="paint17_linear" x1="5928.61" y1="3546.04" x2="7948.81" y2="3613.6" gradientUnits="userSpaceOnUse">
<stop stop-opacity="0"/>
<stop offset="0.88" stop-opacity="0.8"/>
<stop offset="0.97"/>
</linearGradient>
<linearGradient id="paint18_linear" x1="225.051" y1="104.595" x2="269.125" y2="87.266" gradientUnits="userSpaceOnUse">
<stop stop-color="white" stop-opacity="0"/>
<stop offset="0.52" stop-color="white" stop-opacity="0.84"/>
<stop offset="0.97" stop-color="white"/>
</linearGradient>
<linearGradient id="paint19_linear" x1="11757.9" y1="648.713" x2="11805.6" y2="1261.06" gradientUnits="userSpaceOnUse">
<stop stop-opacity="0"/>
<stop offset="0.88" stop-opacity="0.8"/>
<stop offset="0.97"/>
</linearGradient>
<linearGradient id="paint20_linear" x1="19275.4" y1="7913.56" x2="25513.3" y2="7913.56" gradientUnits="userSpaceOnUse">
<stop stop-color="#ECC4D7"/>
<stop offset="0.42" stop-color="#EFD4D1"/>
<stop offset="1" stop-color="#F2EAC9"/>
</linearGradient>
<linearGradient id="paint21_linear" x1="3449.67" y1="1153.1" x2="3306.94" y2="1188.64" gradientUnits="userSpaceOnUse">
<stop stop-opacity="0"/>
<stop offset="0.88" stop-opacity="0.8"/>
<stop offset="0.97"/>
</linearGradient>
<linearGradient id="paint22_linear" x1="5486.82" y1="1288.6" x2="5485.82" y2="1493.58" gradientUnits="userSpaceOnUse">
<stop stop-opacity="0"/>
<stop offset="0.88" stop-opacity="0.8"/>
<stop offset="0.97"/>
</linearGradient>
<linearGradient id="paint23_linear" x1="11460.7" y1="12110.4" x2="12720.6" y2="11618.4" gradientUnits="userSpaceOnUse">
<stop stop-color="#ECC4D7"/>
<stop offset="0.42" stop-color="#EFD4D1"/>
<stop offset="1" stop-color="#F2EAC9"/>
</linearGradient>
<linearGradient id="paint24_linear" x1="513.819" y1="532.974" x2="516.396" y2="532.974" gradientUnits="userSpaceOnUse">
<stop stop-color="white" stop-opacity="0"/>
<stop offset="0.84" stop-color="white" stop-opacity="0.84"/>
<stop offset="0.97" stop-color="white"/>
</linearGradient>
<linearGradient id="paint25_linear" x1="3472.41" y1="2361.34" x2="3296.11" y2="2284.79" gradientUnits="userSpaceOnUse">
<stop stop-color="white" stop-opacity="0"/>
<stop offset="0.84" stop-color="white" stop-opacity="0.84"/>
<stop offset="0.97" stop-color="white"/>
</linearGradient>
<linearGradient id="paint26_linear" x1="4639.94" y1="13134.5" x2="4827.15" y2="13153.4" gradientUnits="userSpaceOnUse">
<stop stop-opacity="0"/>
<stop offset="0.88" stop-opacity="0.8"/>
<stop offset="0.97"/>
</linearGradient>
<linearGradient id="paint27_linear" x1="5066.22" y1="1603.41" x2="5063.44" y2="1673.67" gradientUnits="userSpaceOnUse">
<stop stop-opacity="0"/>
<stop offset="0.88" stop-opacity="0.8"/>
<stop offset="0.97"/>
</linearGradient>
<linearGradient id="paint28_linear" x1="4530.6" y1="2559.42" x2="4543.3" y2="2670.09" gradientUnits="userSpaceOnUse">
<stop stop-opacity="0"/>
<stop offset="0.88" stop-opacity="0.8"/>
<stop offset="0.97"/>
</linearGradient>
<linearGradient id="paint29_linear" x1="1499.24" y1="1549.03" x2="1532" y2="1549.03" gradientUnits="userSpaceOnUse">
<stop stop-opacity="0"/>
<stop offset="0.88" stop-opacity="0.8"/>
<stop offset="0.97"/>
</linearGradient>
<linearGradient id="paint30_linear" x1="1519.52" y1="749.787" x2="1485.82" y2="697.919" gradientUnits="userSpaceOnUse">
<stop stop-opacity="0"/>
<stop offset="0.88" stop-opacity="0.8"/>
<stop offset="0.97"/>
</linearGradient>
<clipPath id="clip0">
<rect width="299" height="237" fill="white"/>
</clipPath>
</defs>
</svg>
