<svg width="56" height="56" viewBox="0 0 98 99" fill="none" xmlns="http://www.w3.org/2000/svg">
<path d="M49.001 4.23109C73.4053 4.07797 93.637 24.0799 93.7709 48.5034C93.9241 73.501 74.1709 93.5987 49.2498 93.7709C24.5584 93.9432 4.38422 74.0369 4.23109 49.3647C4.05883 24.4053 23.9268 4.38422 49.001 4.23109ZM48.9053 91.9717C72.6971 92.0291 91.8952 72.8694 91.9717 48.9627C92.0674 25.3623 72.8502 6.12601 49.0393 6.01117C25.3815 5.89632 6.06859 25.1709 6.01117 48.9819C5.95375 72.6588 25.1709 91.9143 48.9053 91.9717Z" fill="white"/>
<path d="M48.6506 11.0011C69.3799 10.9628 86.3385 27.9405 86.3193 48.689C86.3002 69.4374 69.4565 86.2812 48.708 86.3386C27.9787 86.396 10.9819 69.4374 11.001 48.7081C10.9819 27.9023 27.8447 11.0394 48.6506 11.0011ZM54.5076 60.6901C53.4358 58.6612 53.2826 56.6898 54.967 55.0054C56.6514 53.3019 58.642 53.3784 60.7092 54.5077C60.9197 53.9718 61.092 53.5316 61.3026 53.0148C59.0631 52.364 57.6275 51.0241 57.6084 48.6698C57.5893 46.2581 59.1397 44.9565 61.3217 44.2675C61.0729 43.7315 60.8815 43.3105 60.6709 42.8128C58.6611 43.9612 56.7279 44.0187 55.0627 42.4108C53.3209 40.7265 53.4358 38.7358 54.5268 36.6495C54.01 36.439 53.5506 36.2667 53.0338 36.0562C52.383 38.2573 51.1197 39.6546 48.842 39.7312C46.3537 39.8077 45.033 38.2956 44.3057 36.0562C43.7889 36.2667 43.3678 36.4581 42.8319 36.6878C43.9994 38.7167 44.0377 40.669 42.3916 42.3534C40.7072 44.0761 38.7166 43.9612 36.6686 42.8511C36.458 43.387 36.2666 43.8081 36.0561 44.344C38.2955 44.9948 39.7311 46.3155 39.7311 48.689C39.7502 51.1198 38.1998 52.3831 36.0178 53.1105C36.2666 53.6464 36.458 54.0675 36.6877 54.5651C38.6975 53.3976 40.6307 53.3593 42.2959 54.9671C44.0377 56.6515 43.942 58.6421 42.8127 60.7284C43.3486 60.939 43.7889 61.1304 44.3057 61.3218C44.9756 59.1398 46.2389 57.7233 48.5166 57.6468C50.9858 57.5702 52.3256 59.0823 53.0721 61.3218C53.5697 61.0921 53.9908 60.9007 54.5076 60.6901ZM63.1975 15.9202C60.5561 22.294 57.9338 28.6104 55.3115 34.9651C56.0006 35.3288 56.6322 35.6733 57.283 36.0179C56.5748 37.3769 55.0244 38.3147 55.6752 40.0374C61.494 34.2187 67.3127 28.419 73.1889 22.5429C70.3369 19.844 67.0256 17.6046 63.1975 15.9202ZM81.4002 63.2167C75.0264 60.5753 68.71 57.953 62.3744 55.3308C61.9916 56.039 61.6471 56.6706 61.3026 57.3023C59.9436 56.5558 59.0057 55.0054 57.2447 55.6944C63.0826 61.5323 68.9014 67.3319 74.7775 73.2081C77.4764 70.3562 79.7158 67.0448 81.4002 63.2167ZM22.4662 73.1315C28.3615 67.2362 34.1611 61.4366 39.9608 55.637C38.2572 54.9671 37.3194 56.6706 35.9795 57.264C35.6158 56.594 35.2904 55.9815 34.9459 55.3116C28.5721 57.953 22.2557 60.5753 15.901 63.1976C17.5854 67.0257 19.8057 70.337 22.4662 73.1315ZM73.1697 74.8159C67.2936 68.9206 61.5131 63.121 55.6752 57.2831C54.9861 59.044 56.6322 60.0202 57.2639 61.3409C56.594 61.7046 55.9815 62.03 55.3115 62.3745C57.9529 68.7292 60.5561 75.0456 63.1975 81.4194C67.0065 79.7351 70.2986 77.5148 73.1697 74.8159ZM62.3553 42.028C68.7483 39.3675 75.0647 36.7644 81.3619 34.1421C80.29 31.137 76.3088 25.2226 74.8158 24.2847C68.9779 30.1226 63.1783 35.9222 57.3979 41.7026C59.044 42.3151 59.9818 40.7073 61.3217 40.0374C61.6471 40.6882 61.9725 41.3007 62.3553 42.028ZM34.1037 81.4194C36.7643 75.0073 39.3674 68.7101 41.9897 62.3554C41.2815 61.9726 40.6498 61.6472 40.0182 61.3026C40.7264 59.9437 42.2768 58.9866 41.6068 57.2448C35.769 63.1019 29.9502 68.9015 24.0932 74.7585C26.9643 77.5147 30.2756 79.7159 34.1037 81.4194ZM15.8819 34.1229C22.2748 36.7644 28.5912 39.3866 34.9268 42.0089C35.3096 41.3007 35.6541 40.669 35.9795 40.0374C37.3385 40.7647 38.2764 42.3151 40.0373 41.6452C34.1994 35.8073 28.3998 30.0077 22.5236 24.1315C19.8248 26.9644 17.6236 30.2757 15.8819 34.1229ZM24.208 22.5237C30.0651 28.3808 35.8455 34.1995 41.6643 40.0183C42.3533 38.2765 40.6307 37.3386 40.0565 35.9796C40.7264 35.6351 41.3389 35.3097 42.0088 34.9651C39.3674 28.5913 36.7451 22.2749 34.142 15.9776C31.2709 16.9347 25.8541 20.5714 24.208 22.5237ZM47.6936 12.8386C43.5401 12.9534 39.6162 13.719 35.769 15.2312C38.4295 21.6241 41.0326 27.9405 43.6549 34.2761C44.4205 34.0272 45.0904 33.8167 45.8178 33.587C45.9518 34.4101 46.0092 35.1757 46.1815 35.903C46.3729 36.6687 46.7365 37.3769 47.6744 37.6257C47.6936 29.3761 47.6936 21.203 47.6936 12.8386ZM37.6639 47.6937C36.8217 45.837 35.0225 46.2581 33.6061 45.7987C33.8358 45.0714 34.0272 44.3823 34.2377 43.655C27.8447 41.0136 21.5666 38.4105 15.2119 35.769C13.6998 39.6355 12.9342 43.5593 12.8385 47.6745C21.1455 47.6937 29.3569 47.6937 37.6639 47.6937ZM82.0893 35.7882C75.7154 38.4296 69.399 41.0519 63.0635 43.6741C63.2932 44.4589 63.5037 45.1288 63.6951 45.8179C62.2213 46.239 60.4795 45.8562 59.6565 47.6554C67.9826 47.6554 76.2131 47.6554 84.501 47.6554C84.3479 43.5593 83.6014 39.6355 82.0893 35.7882ZM47.6553 84.5011C47.6553 76.1558 47.6553 67.9444 47.6553 59.6565C45.7986 60.4987 46.258 62.3362 45.7604 63.7144C45.033 63.4847 44.3822 63.2933 43.6549 63.0636C41.0135 69.4374 38.4104 75.7347 35.769 82.1085C39.6545 83.6206 43.5592 84.3671 47.6553 84.5011ZM53.6272 34.2761C56.2686 27.9214 58.8717 21.605 61.5131 15.2312C57.6467 13.719 53.7229 12.9534 49.6459 12.8386C49.6459 21.1647 49.6459 29.3761 49.6459 37.5874C49.7608 37.6448 49.8565 37.6831 49.9713 37.7405C50.3541 37.128 50.8326 36.5347 51.0623 35.8647C51.3111 35.1757 51.3303 34.3909 51.4451 33.587C52.2299 33.8358 52.8807 34.0464 53.6272 34.2761ZM37.6639 49.646C29.2994 49.646 21.1072 49.646 12.8002 49.646C12.9342 53.7804 13.6615 57.7042 15.1928 61.5323C21.5858 58.8718 27.9022 56.2687 34.2186 53.6464C33.9697 52.8616 33.7783 52.2108 33.5486 51.5026C35.0608 51.1198 36.7834 51.4644 37.6639 49.646ZM63.0443 53.6464C69.4565 56.3069 75.7537 58.9101 82.1084 61.5515C83.5822 57.6276 84.4053 53.7229 84.4627 49.6843C76.1174 49.6843 67.9252 49.6843 59.6373 49.6843C60.4986 51.5026 62.2787 51.0815 63.7143 51.5409C63.4846 52.23 63.274 52.8808 63.0443 53.6464ZM61.5322 82.1085C58.8717 75.7155 56.2686 69.3991 53.6463 63.0636C52.8615 63.2933 52.1725 63.4847 51.4834 63.6952C51.1006 62.2022 51.4451 60.4796 49.6268 59.6565C49.6268 67.9827 49.6268 76.1749 49.6268 84.5011C53.7229 84.3671 57.6275 83.6206 61.5322 82.1085Z" fill="white"/>
<path d="M52.7718 49.0202C52.7526 51.0682 50.9917 52.81 48.9628 52.7717C46.9147 52.7334 45.1921 50.9534 45.2304 48.9436C45.2878 46.9338 46.9913 45.2494 48.9819 45.2494C51.03 45.2303 52.7718 46.9912 52.7718 49.0202ZM49.0585 50.9342C50.1304 50.9151 50.9725 50.0155 50.9343 48.9436C50.896 47.8717 50.0155 47.0295 48.9436 47.0487C47.8718 47.087 47.0296 47.9674 47.0487 49.0584C47.087 50.1303 47.9675 50.9725 49.0585 50.9342Z" fill="white"/>
<path d="M48.9819 0.00100952C75.683 -0.171256 97.8288 21.7256 97.9819 48.4459C98.1541 75.8171 76.5252 97.8096 49.269 98.001C22.2616 98.1733 0.173283 76.3913 0.00101742 49.403C-0.171248 22.0893 21.5534 0.173275 48.9819 0.00100952ZM48.9053 96.0296C74.9366 96.1061 95.9338 75.128 96.0487 48.9627C96.1444 23.1229 75.1088 2.0682 49.0584 1.95335C23.142 1.83851 2.02992 22.9315 1.95336 48.9819C1.89594 74.8792 22.9315 95.9721 48.9053 96.0296Z" fill="white"/>
</svg>
